<svg width="25" height="24" viewBox="0 0 25 24" fill="none" xmlns="http://www.w3.org/2000/svg">
<path d="M14.5 11C15.3333 11 16.0417 10.7083 16.625 10.125C17.2083 9.54167 17.5 8.83334 17.5 8C17.5 7.16667 17.2083 6.45834 16.625 5.875C16.0417 5.29167 15.3333 5 14.5 5C13.6667 5 12.9583 5.29167 12.375 5.875C11.7917 6.45834 11.5 7.16667 11.5 8C11.5 8.83334 11.7917 9.54167 12.375 10.125C12.9583 10.7083 13.6667 11 14.5 11ZM8.5 18C7.95 18 7.479 17.804 7.087 17.412C6.695 17.02 6.49934 16.5493 6.5 16V4C6.5 3.45 6.696 2.979 7.088 2.587C7.48 2.195 7.95067 1.99934 8.5 2H20.5C21.05 2 21.521 2.196 21.913 2.588C22.305 2.98 22.5007 3.45067 22.5 4V16C22.5 16.55 22.304 17.021 21.912 17.413C21.52 17.805 21.0493 18.0007 20.5 18H8.5ZM4.5 22C3.95 22 3.479 21.804 3.087 21.412C2.695 21.02 2.49934 20.5493 2.5 20V7C2.5 6.71667 2.596 6.479 2.788 6.287C2.98 6.095 3.21733 5.99934 3.5 6C3.78333 6 4.021 6.096 4.213 6.288C4.405 6.48 4.50067 6.71734 4.5 7V20H17.5C17.7833 20 18.021 20.096 18.213 20.288C18.405 20.48 18.5007 20.7173 18.5 21C18.5 21.2833 18.404 21.521 18.212 21.713C18.02 21.905 17.7827 22.0007 17.5 22H4.5ZM8.5 16H20.5C19.7667 15.0167 18.8833 14.2707 17.85 13.762C16.8167 13.2533 15.7 12.9993 14.5 13C13.3 13 12.1833 13.2543 11.15 13.763C10.1167 14.2717 9.23334 15.0173 8.5 16Z" fill="black"/>
</svg>
