<svg width="24" height="24" viewBox="0 0 24 24" fill="none" xmlns="http://www.w3.org/2000/svg">
<path fill-rule="evenodd" clip-rule="evenodd" d="M16.5 3.75H18.75C19.1478 3.75 19.5294 3.90804 19.8107 4.18934C20.092 4.47064 20.25 4.85218 20.25 5.25V21C20.25 21.3978 20.092 21.7794 19.8107 22.0607C19.5294 22.342 19.1478 22.5 18.75 22.5H5.25C4.85218 22.5 4.47064 22.342 4.18934 22.0607C3.90804 21.7794 3.75 21.3978 3.75 21V5.25C3.75 4.85218 3.90804 4.47064 4.18934 4.18934C4.47064 3.90804 4.85218 3.75 5.25 3.75H7.5V3C7.5 2.60218 7.65804 2.22064 7.93934 1.93934C8.22064 1.65804 8.60218 1.5 9 1.5H15C15.3978 1.5 15.7794 1.65804 16.0607 1.93934C16.342 2.22064 16.5 2.60218 16.5 3V3.75ZM15 3H9V6H15V3ZM13.5 13.5H7.5V15H13.5V13.5ZM16.5 9.75H7.5V11.25H16.5V9.75ZM11.25 17.25H7.5V18.75H11.25V17.25Z" fill="black"/>
</svg>
